<mxfile host="app.diagrams.net" modified="2024-04-02T13:35:45.363Z" agent="Mozilla/5.0 (Windows NT 10.0; Win64; x64) AppleWebKit/537.36 (KHTML, like Gecko) Chrome/121.0.0.0 Safari/537.36 OPR/107.0.0.0 (Edition std-1)" version="24.2.1" etag="uJUioEvdj7g0EqwzHX1q" type="github">
  <diagram name="Strona-1" id="Zc1JUr2zndU27ROKz5cv">
    <mxGraphModel>
      <root>
        <mxCell id="0" />
        <mxCell id="1" parent="0" />
      </root>
    </mxGraphModel>
  </diagram>
</mxfile>
